# xmcd CD database file
#
# Track frame offsets:
#	150
#	24947
#	40623
#	62453
#	83879
#	100997
#	128976
#	152538
#	173149
#	205094
#	226957
#	252736
#	271305
#	283172
#	294600
#
# Disc length: 3942 seconds
#
# Revision: 0
# Processed by: cddbd v1.5.2PL0 Copyright (c) Steve Scherf et al.
# Submitted via: CDex 1.70beta2
#
DISCID=ce0f640f
DTITLE=various artist - NPS maakt jazz
DYEAR=2009
DGENRE=Jazz
TTITLE0=Bart Wirtz - Honque Honque
TTITLE1=EinsteinBarbie -The Rulez
TTITLE2=Morris Kliphuis - Spliff Riff
TTITLE3=Lefties Soul Connection - Get Back
TTITLE4=Rubin Hein - Deaf, Dumb and Exposed
TTITLE5=iET - Stay
TTITLE6=Captain Hook - Bonus
TTITLE7=Pete Philly and Perquisite - Time Flies
TTITLE8=Remco Keizer - Wilson's Prom
TTITLE9=Renske Taminiau - Something Coming
TTITLE10=Maarten Hogenhuis - Als, dan
TTITLE11=Pete Philly and Perquisite - Genie in a bottle
TTITLE12=EinsteinBarbie -Barbie Girl
TTITLE13=Rubin Hein - Too Much
TTITLE14=NPS maakt Jazz
EXTD=YEAR: 2009
EXTT0=
EXTT1=
EXTT2=
EXTT3=
EXTT4=
EXTT5=
EXTT6=
EXTT7=
EXTT8=
EXTT9=
EXTT10=
EXTT11=
EXTT12=
EXTT13=
EXTT14=
PLAYORDER=
